<svg
    class="icon icon-arrow-checkmark"
    xmlns="http://www.w3.org/2000/svg"
    viewBox="0 0 18 22"
    width="18" height="22"
    fill="currentColor"
>
    <path d="M10.5562 3.99847C10.6593 3.89533 10.7173 3.75546 10.7173 3.60962C10.7173 3.46378 10.6593 3.32391 10.5562 3.22077L8.22314 0.887668C8.1194 0.787481 7.98047 0.732044 7.83626 0.733297C7.69206 0.73455 7.55411 0.792393 7.45214 0.894368C7.35016 0.996342 7.29232 1.13429 7.29106 1.2785C7.28981 1.42271 7.34525 1.56164 7.44544 1.66537L8.54214 2.76207C6.85129 2.85605 5.23032 3.4681 3.89932 4.5151C2.56831 5.56211 1.59175 6.99335 1.10221 8.61451C0.612683 10.2357 0.6339 11.9682 1.16298 13.5769C1.69207 15.1856 2.70339 16.5925 4.05963 17.6066C4.17633 17.6941 4.32301 17.7317 4.46742 17.711C4.61182 17.6904 4.74211 17.6133 4.82964 17.4966C4.91716 17.3799 4.95474 17.2332 4.93411 17.0888C4.91348 16.9444 4.83633 16.8141 4.71964 16.7266C3.41064 15.7481 2.47637 14.3506 2.07242 12.767C1.66847 11.1834 1.81922 9.50926 2.49956 8.02329C3.17991 6.53733 4.34879 5.32929 5.81153 4.60036C7.27427 3.87143 8.94259 3.66561 10.5386 4.01717L10.5562 3.99847ZM7.44544 17.9993L7.46304 17.9817C7.91184 18.0807 8.37714 18.1357 8.85344 18.1467L8.84684 18.1533C8.87382 18.1498 8.90103 18.1483 8.92824 18.1489C10.4361 18.1645 11.9104 17.703 13.1402 16.8303C14.3701 15.9576 15.2925 14.7185 15.7756 13.2899C16.2587 11.8614 16.2778 10.3167 15.8302 8.87673C15.3825 7.43671 14.491 6.1751 13.2831 5.27227C13.2254 5.22893 13.1767 5.17464 13.1399 5.11249C13.1031 5.05034 13.0789 4.98155 13.0687 4.91005C13.0584 4.83855 13.0624 4.76574 13.0803 4.69577C13.0983 4.6258 13.1298 4.56005 13.1731 4.50227C13.2165 4.44449 13.2708 4.39581 13.3329 4.35901C13.3951 4.32221 13.4639 4.29801 13.5354 4.2878C13.6069 4.27758 13.6797 4.28155 13.7496 4.29948C13.8196 4.3174 13.8854 4.34893 13.9431 4.39227C15.2994 5.40636 16.3107 6.81326 16.8398 8.42195C17.3689 10.0306 17.3901 11.7632 16.9006 13.3843C16.411 15.0055 15.4345 16.4367 14.1035 17.4837C12.7724 18.5307 11.1515 19.1428 9.46064 19.2368L10.5562 20.3324C10.6088 20.3831 10.6507 20.4438 10.6795 20.5109C10.7083 20.578 10.7235 20.6502 10.7241 20.7232C10.7248 20.7962 10.7108 20.8687 10.6832 20.9362C10.6555 21.0038 10.6147 21.0652 10.5631 21.1169C10.5114 21.1685 10.45 21.2094 10.3824 21.237C10.3148 21.2647 10.2424 21.2786 10.1694 21.278C10.0963 21.2773 10.0242 21.2621 9.95706 21.2333C9.88996 21.2045 9.82927 21.1626 9.77853 21.1101L7.44544 18.7781C7.39422 18.727 7.35358 18.6663 7.32585 18.5995C7.29812 18.5326 7.28385 18.461 7.28385 18.3887C7.28385 18.3163 7.29812 18.2447 7.32585 18.1779C7.35358 18.1111 7.39422 18.0504 7.44544 17.9993ZM11.5902 8.95947C11.6415 9.01056 11.6821 9.07125 11.7098 9.13807C11.7375 9.20489 11.7518 9.27652 11.7518 9.34887C11.7518 9.42121 11.7375 9.49285 11.7098 9.55967C11.6821 9.62648 11.6415 9.68718 11.5902 9.73827L8.29024 13.0383C8.23915 13.0895 8.17845 13.1301 8.11163 13.1579C8.04481 13.1856 7.97318 13.1999 7.90084 13.1999C7.82849 13.1999 7.75686 13.1856 7.69004 13.1579C7.62322 13.1301 7.56253 13.0895 7.51144 13.0383L5.86143 11.3883C5.75816 11.285 5.70014 11.1449 5.70014 10.9989C5.70014 10.8528 5.75816 10.7127 5.86143 10.6095C5.96471 10.5062 6.10478 10.4482 6.25083 10.4482C6.39689 10.4482 6.53696 10.5062 6.64024 10.6095L7.90084 11.8712L10.8114 8.95947C10.8625 8.90825 10.9232 8.86761 10.99 8.83988C11.0569 8.81216 11.1285 8.79788 11.2008 8.79788C11.2732 8.79788 11.3448 8.81216 11.4116 8.83988C11.4785 8.86761 11.5391 8.90825 11.5902 8.95947ZM3.50084 11C3.50084 9.54128 4.0803 8.14233 5.11175 7.11088C6.1432 6.07943 7.54214 5.49997 9.00084 5.49997C10.4595 5.49997 11.8585 6.07943 12.8899 7.11088C13.9214 8.14233 14.5008 9.54128 14.5008 11C14.5008 12.4587 13.9214 13.8576 12.8899 14.8891C11.8585 15.9205 10.4595 16.5 9.00084 16.5C7.54214 16.5 6.1432 15.9205 5.11175 14.8891C4.0803 13.8576 3.50084 12.4587 3.50084 11ZM9.00084 6.59997C7.83388 6.59997 6.71473 7.06354 5.88956 7.8887C5.0644 8.71386 4.60084 9.83302 4.60084 11C4.60084 12.1669 5.0644 13.2861 5.88956 14.1112C6.71473 14.9364 7.83388 15.4 9.00084 15.4C10.1678 15.4 11.2869 14.9364 12.1121 14.1112C12.9373 13.2861 13.4008 12.1669 13.4008 11C13.4008 9.83302 12.9373 8.71386 12.1121 7.8887C11.2869 7.06354 10.1678 6.59997 9.00084 6.59997Z"/>
</svg>
