<svg
    class="icon icon-card-amex"
    xmlns="http://www.w3.org/2000/svg"
    viewBox="0 0 24 15"
    width="24" height="15"
    fill="none"
>
    <path
        d="M22.1053 0.5H1.89474C0.821053 0.5 0 1.25833 0 2.25V12.75C0 13.7417 0.88421 14.5 1.89474 14.5H22.1053C23.1789 14.5 24 13.7417 24 12.75V2.25C24 1.25833 23.1158 0.5 22.1053 0.5Z"
        opacity="0.07" fill="black"
    />
    <path d="M22.1055 1.08334C22.8003 1.08334 23.3687 1.60834 23.3687 2.25001V12.75C23.3687 13.3917 22.8003 13.9167 22.1055 13.9167H1.89499C1.20026 13.9167 0.631836 13.3917 0.631836 12.75V2.25001C0.631836 1.60834 1.20026 1.08334 1.89499 1.08334H22.1055Z"
        fill="#006FCF"
    />
    <path d="M5.66595 6.48966L6.15479 7.58399H5.18089L5.66595 6.48966ZM15.8186 6.53516H13.9384V7.01757H15.7883V7.74032H13.9422V8.27816H15.8224V8.70924L17.1342 7.39966L15.8224 6.03466L15.8186 6.53516ZM6.93668 5.17016H9.45984L10.0201 6.29891L10.5392 5.16666H17.0887L17.7695 5.86082L18.4737 5.16666H21.4819L19.2594 7.41366L21.4592 9.64666H18.4062L17.7253 8.95249L17.0148 9.64666H6.33479L6.02279 8.95249H5.3091L4.99647 9.64666H2.52637L4.60174 5.16666H6.76805L6.93668 5.17016ZM12.4081 5.79899H10.9939L10.0466 7.86166L9.02026 5.79899H7.61689V8.60482L6.31584 5.79899H5.0571L3.55268 9.01432H4.53479L4.84679 8.32016H6.48637L6.79837 9.01432H8.51626V6.71891L9.62216 9.01782H10.3737L11.4727 6.72591V9.01841H12.3935L12.4087 5.79841L12.4081 5.79899ZM18.307 7.41366L19.9055 5.79899H18.7548L17.7436 6.80582L16.7659 5.79899H13.0434V9.01782H16.7129L17.7323 8.00399L18.7099 9.01782H19.8942L18.3076 7.41366H18.307Z"
        fill="white"
    />
</svg>
