<svg
    class="logo logo-mcafee"
    xmlns="http://www.w3.org/2000/svg"
    viewBox="0 0 88 32"
    width="88" height="32"
    fill="none"
>
    <path d="M15.2579 32C15.2579 32 -1.85272 26.1496 0.165459 2.21607C5.07928 0.886427 10.1686 0.0886427 15.2579 0C20.435 0.0886427 25.5243 0.797784 30.4381 2.21607C32.4563 26.0609 15.2579 32 15.2579 32Z" fill="url(#paint0_linear_1_529)"/>
    <path d="M15.2579 32C15.2579 32 -1.85272 26.1496 0.165459 2.21607C5.07928 0.886427 10.1686 0.0886427 15.2579 0C20.435 0.0886427 25.5243 0.797784 30.4381 2.21607L28.8587 3.63435L15.2579 30.4931V32Z" fill="url(#paint1_linear_1_529)"/>
    <path d="M15.2579 30.4931C15.2579 30.4931 -0.185525 25.1745 1.56941 3.45706C6.0445 2.21606 10.6073 1.50692 15.2579 1.41827C19.9085 1.50692 24.5591 2.21606 29.0342 3.45706C30.7891 25.0859 15.2579 30.4931 15.2579 30.4931Z" fill="white" stroke="black" stroke-width="0.515" stroke-linecap="round"/>
    <path d="M15.2579 30.4931C15.2579 30.4931 -0.185525 25.1745 1.56941 3.45706C6.0445 2.21606 10.6073 1.50692 15.2579 1.41827C19.9085 1.50692 24.5591 2.21606 29.0342 3.45706C30.7891 25.0859 15.2579 30.4931 15.2579 30.4931Z" fill="white"/>
    <path d="M1.48171 3.19115H1.30622V3.36843C0.428748 14.7147 4.20186 21.5402 7.62398 25.2632C9.72991 27.6565 12.3623 29.518 15.258 30.6704L15.3457 30.759H15.4335C18.3291 29.6067 20.9615 27.7452 23.0674 25.3518C26.4018 21.6288 30.2627 14.8033 29.2974 3.54572V3.27979H29.122C24.6469 2.03879 19.9963 1.41829 15.3457 1.32965C10.6951 1.41829 6.04454 2.03879 1.48171 3.19115ZM15.5212 1.50694C19.9963 1.59558 24.5591 2.30472 28.9465 3.45708C29.0342 4.52079 29.0342 5.85043 29.0342 6.8255C29.0342 15.9557 25.6998 21.7175 22.7164 24.9972C20.6983 27.3019 18.1536 29.1634 15.258 30.3158C12.4501 29.1634 9.9054 27.3019 7.79948 24.9972C4.90383 21.7175 1.56946 16.0443 1.56946 6.8255C1.56946 5.85043 1.6572 4.52079 1.74495 3.45708C2.79791 3.36843 9.20343 1.50694 15.5212 1.50694Z" fill="url(#paint2_linear_1_529)"/>
    <path d="M15.258 27.7451C15.258 27.7451 2.27143 22.9584 3.76313 4.78668C3.76313 4.78668 9.46667 5.2299 15.258 5.2299C21.0492 5.2299 26.665 4.78668 26.8405 4.78668C28.3322 22.9584 15.258 27.7451 15.258 27.7451Z" fill="url(#paint3_linear_1_529)"/>
    <path d="M15.2579 26.2382C15.2579 26.2382 4.02629 22.072 5.34249 6.38226C5.34249 6.38226 10.2563 6.73683 15.2579 6.73683C20.2594 6.73683 25.0855 6.38226 25.261 6.38226C26.5772 21.9834 15.2579 26.1496 15.2579 26.2382Z" fill="url(#paint4_radial_1_529)"/>
    <path d="M26.8405 4.78668C26.665 4.78668 21.0492 5.2299 15.2579 5.2299C9.4666 5.2299 3.76306 4.78668 3.76306 4.78668L5.3425 6.38225C5.3425 6.38225 10.2563 6.73682 15.2579 6.73682C20.2595 6.73682 25.0855 6.2936 25.261 6.2936L26.8405 4.78668Z" fill="#8B1325"/>
    <path d="M15.258 27.7451C15.258 27.7451 2.27143 22.9584 3.76313 4.78668L5.34257 6.38225C4.11411 22.072 15.258 26.2382 15.258 26.2382V27.7451Z" fill="url(#paint5_linear_1_529)"/>
    <path d="M8.32593 19.9446L10.1686 7.71191H13.2398L17.1006 19.9446H13.854L12.1868 13.651L11.2216 19.9446H8.32593Z" fill="white"/>
    <path d="M17.5394 7.71191H20.6105L22.3654 19.9446H19.4698L18.4168 13.5623L17.3639 18.5263L15.7844 13.5623L17.5394 7.71191Z" fill="white"/>
    <path d="M43.3369 13.651H41.0555L38.8618 7.97782L38.0721 13.651H35.5275L37.1947 3.10248H39.6516L43.3369 13.651ZM41.6697 8.24375L43.5124 3.10248H46.0571L47.5488 13.651H45.0041L44.3021 7.97782L42.8105 11.3462L41.6697 8.24375Z" fill="black"/>
    <path d="M57.0255 11.7895L56.4112 13.5623H53.8666L57.3764 3.01385H60.0089L63.431 13.5623H60.8863L60.2721 11.7895H57.0255ZM58.6927 6.29363L57.6397 9.66206H59.6579L58.6927 6.29363Z" fill="black"/>
    <path d="M76.1542 10.4598H71.2404C71.2404 11.5236 71.7669 12.0554 72.6444 12.0554C73.0831 12.0554 73.5218 11.8781 73.7851 11.4349H75.9787C75.8033 12.2327 75.3645 12.8532 74.7503 13.2964C74.1361 13.7396 73.4341 13.9169 72.6444 13.9169C70.7139 14.0942 69.0467 12.5873 68.8713 10.6371V10.1053C68.6958 8.15514 70.0997 6.47093 72.0301 6.29364H72.4689C74.7503 6.29364 76.0665 7.88921 76.0665 10.2826L76.1542 10.4598ZM74.0483 8.95292C73.9606 8.33242 73.3463 7.80057 72.7321 7.80057C72.0301 7.80057 71.5037 8.24378 71.3282 8.95292H74.0483Z" fill="black"/>
    <path d="M84.1392 10.4598H79.2254C79.2254 11.5236 79.7519 12.0554 80.7171 12.0554C81.1559 12.0554 81.5946 11.8781 81.8578 11.4349H84.0515C83.876 12.2327 83.4373 12.8532 82.823 13.2964C82.2088 13.7396 81.5068 13.9169 80.7171 13.9169C78.7867 14.0942 77.0318 12.5873 76.944 10.6371V10.1053C76.7685 8.15514 78.1725 6.47093 80.1029 6.29364H80.6294C82.9108 6.29364 84.227 7.88921 84.227 10.2826L84.1392 10.4598ZM82.0333 8.95292C81.9456 8.33242 81.3313 7.80057 80.7171 7.80057C80.0151 7.80057 79.4887 8.24378 79.3132 8.95292H82.0333Z" fill="black"/>
    <path d="M84.4902 5.05264C84.4902 4.07757 85.28 3.27979 86.2452 3.27979C87.2104 3.27979 88.0001 4.07757 88.0001 5.05264C88.0001 6.02771 87.2104 6.82549 86.2452 6.82549C85.28 6.82549 84.4902 6.11635 84.4902 5.05264ZM84.7535 5.05264C84.7535 5.85042 85.4554 6.55956 86.2452 6.55956C87.0349 6.55956 87.7369 5.85042 87.7369 5.05264C87.7369 4.25485 87.0349 3.54571 86.2452 3.54571C85.4554 3.54571 84.7535 4.16621 84.7535 5.05264ZM87.1226 6.02771H86.7716L86.2452 5.14128H85.8942V6.02771H85.6309V4.07757H86.4207C86.7716 4.07757 87.1226 4.16621 87.1226 4.60943C87.1226 4.87535 86.9471 5.14128 86.6839 5.14128H86.5084L87.1226 6.02771ZM85.8942 4.3435V4.87535H86.2452C86.5084 4.87535 86.8594 4.87535 86.8594 4.60943C86.8594 4.3435 86.6839 4.3435 86.4207 4.3435H85.8942Z" fill="black"/>
    <path d="M64.3084 8.24375H62.9922V6.4709H64.3961V5.67311C64.3961 3.54569 65.3613 2.83655 67.204 2.83655C67.6428 2.83655 67.9938 2.92519 68.3447 2.92519L68.257 4.6094C67.9938 4.52076 67.8183 4.52076 67.555 4.52076C66.9408 4.52076 66.7653 4.96397 66.7653 5.67311V6.4709H68.4325V8.24375H66.6775V13.651H64.3084V8.24375Z" fill="black"/>
    <path d="M40.7044 18.7036C40.0902 18.4377 39.476 18.2604 38.8618 18.2604C38.072 18.2604 37.1068 18.5263 37.1068 19.59C37.1068 21.4515 41.4942 21.0083 41.4942 24.2881C41.4942 26.4155 39.827 27.302 37.8088 27.302C37.1068 27.302 36.4049 27.1247 35.7906 26.8587L35.9661 25.5291C36.6681 25.795 37.3701 25.9723 38.072 26.061C38.8618 26.061 40.0025 25.6177 40.0025 24.3767C40.0025 22.1607 35.7029 22.6925 35.7029 19.6787C35.7029 17.9058 37.1946 17.0194 38.9495 17.0194C39.6515 17.0194 40.4412 17.1967 41.1432 17.374L40.7044 18.7036Z" fill="black"/>
    <path d="M43.4246 17.1967H49.1281V18.4377H44.9163V21.3629H48.7771V22.6039H44.9163V25.8836H49.1281V27.1246H43.4246V17.1967Z" fill="black"/>
    <path d="M57.815 18.7922C57.2008 18.4377 56.4988 18.2604 55.7091 18.2604C53.6032 18.2604 51.8482 19.9446 51.8482 22.072C51.8482 24.1994 53.5154 25.9723 55.6214 25.9723C56.4111 25.9723 57.113 25.795 57.815 25.4404L57.9028 26.7701C57.2008 27.036 56.4111 27.2133 55.6214 27.2133C52.4625 27.2133 50.2688 25.1745 50.2688 21.9834C50.2688 18.9695 52.5502 16.8421 55.6214 16.8421C56.4111 16.8421 57.2008 16.9307 57.9028 17.2853L57.815 18.7922Z" fill="black"/>
    <path d="M67.0284 22.9584C67.0284 25.795 65.5367 27.2133 63.0798 27.2133C60.6229 27.2133 59.1312 25.7064 59.1312 22.9584V17.1967H60.5352V22.8698C60.5352 24.7313 61.1494 26.0609 62.9921 26.0609C64.8348 26.0609 65.449 24.7313 65.449 22.8698V17.1967H66.9407L67.0284 22.9584Z" fill="black"/>
    <path d="M69.3099 17.1967H71.7668C73.785 17.1967 75.7155 17.5512 75.7155 19.8559C75.7155 21.0083 74.7502 21.9834 73.6095 22.072C74.0483 22.2493 74.2238 22.4266 74.5747 23.0471L76.5052 27.036H74.838L73.2585 23.5789C72.8198 22.6039 72.2933 22.6039 71.5914 22.6039H70.7139V27.036H69.3099V17.1967ZM70.7139 21.4515H71.9423C73.3463 21.4515 74.136 20.831 74.136 19.8559C74.136 18.9695 73.434 18.349 72.1178 18.349H70.7139V21.4515Z" fill="black"/>
    <path d="M78.1724 17.1967H83.8759V18.4377H79.6641V21.3629H83.5249V22.6039H79.6641V25.8836H83.8759V27.1246H78.1724V17.1967Z" fill="black"/>
    <path d="M53.34 8.68697C52.9013 8.42104 52.4626 8.24376 51.9361 8.24376C50.9709 8.24376 50.1811 9.04154 50.1811 10.0166V10.1939C50.1811 11.169 50.9709 12.0554 52.0238 12.0554H52.1116C52.6381 12.0554 53.0768 11.9668 53.6033 11.7008V13.4737C52.989 13.7396 52.3748 13.8282 51.7606 13.8282C49.7424 14.0055 48.0752 12.4986 47.8997 10.4598V10.1053C47.812 8.06647 49.3914 6.38226 51.4096 6.38226H51.7606C52.3748 6.38226 52.989 6.47091 53.5155 6.82548L53.34 8.68697Z" fill="black"/>
    <defs>
        <linearGradient id="paint0_linear_1_529" x1="12.3259" y1="2.91024" x2="29.7881" y2="32.9988" gradientUnits="userSpaceOnUse">
            <stop stop-color="#646567"/>
            <stop offset="0.097" stop-color="#717274"/>
            <stop offset="0.317" stop-color="#898B8D"/>
            <stop offset="0.54" stop-color="#9A9B9D"/>
            <stop offset="0.766" stop-color="#A4A5A7"/>
            <stop offset="1" stop-color="#A7A8AA"/>
            </linearGradient>
        <linearGradient id="paint1_linear_1_529" x1="18.4746" y1="9.876" x2="-3.2089" y2="23.0287" gradientUnits="userSpaceOnUse">
            <stop stop-color="#C6C7C8"/>
            <stop offset="0.092" stop-color="#DCDDDD"/>
            <stop offset="0.203" stop-color="#F0F0F0"/>
            <stop offset="0.316" stop-color="#FBFBFB"/>
            <stop offset="0.433" stop-color="white"/>
            <stop offset="0.537" stop-color="#F6F7F7"/>
            <stop offset="0.704" stop-color="#DFDFE0"/>
            <stop offset="0.913" stop-color="#B9BABB"/>
            <stop offset="1" stop-color="#A7A8AA"/>
            </linearGradient>
        <linearGradient id="paint2_linear_1_529" x1="24.0609" y1="6.50983" x2="1.25521" y2="20.8326" gradientUnits="userSpaceOnUse">
            <stop stop-color="#4B4B4D"/>
            <stop offset="0.013" stop-color="#4D4D4F"/>
            <stop offset="0.253" stop-color="#67686A"/>
            <stop offset="0.497" stop-color="#797A7C"/>
            <stop offset="0.744" stop-color="#838486"/>
            <stop offset="1" stop-color="#87888A"/>
            </linearGradient>
        <linearGradient id="paint3_linear_1_529" x1="8.85828" y1="7.66135" x2="27.737" y2="21.6343" gradientUnits="userSpaceOnUse">
            <stop stop-color="#8B1325"/>
            <stop offset="0.607" stop-color="#CB0233"/>
            <stop offset="0.708" stop-color="#CB0233"/>
            <stop offset="1" stop-color="#8A193F"/>
            </linearGradient>
        <radialGradient id="paint4_radial_1_529" cx="0" cy="0" r="1" gradientUnits="userSpaceOnUse" gradientTransform="translate(-8440.89 -6145.15) scale(20.2313 20.4378)">
            <stop stop-color="#CB0233"/>
            <stop offset="0.461" stop-color="#CB0233"/>
            <stop offset="1" stop-color="#8A193F"/>
            </radialGradient>
        <linearGradient id="paint5_linear_1_529" x1="0.378557" y1="26.888" x2="21.1863" y2="20.6913" gradientUnits="userSpaceOnUse">
            <stop stop-color="#8B1325"/>
            <stop offset="0.607" stop-color="#CB0233"/>
            <stop offset="0.708" stop-color="#CB0233"/>
            <stop offset="1" stop-color="#8A193F"/>
        </linearGradient>
    </defs>
</svg>
