<svg
    class="logo logo-norton"
    xmlns="http://www.w3.org/2000/svg"
    viewBox="0 0 90 40"
    width="90" height="40"
    fill="none"
>
    <path d="M17.7223 4.2514C10.1455 4.2514 4 10.4645 4 18.1246C4 25.7847 10.1455 31.9973 17.7223 31.9973C25.2991 31.9973 31.4442 25.7851 31.4442 18.125C31.4442 10.4649 25.2991 4.25182 17.7223 4.25182V4.2514ZM17.671 8.60374C22.8748 8.60374 27.0879 12.8636 27.0879 18.1246C27.0879 23.3855 22.8748 27.645 17.671 27.645C12.4673 27.645 8.24104 23.3855 8.24104 18.1246C8.24104 12.8636 12.4673 8.60374 17.671 8.60374Z" fill="#FEB511"/>
    <path d="M35.5187 7.24376V19.3291H37.902V10.9482L42.13 19.3291H44.7052V7.24376H42.3227V14.7824L38.4145 7.24417H36.0312L35.5187 7.24376ZM50.1508 10.2361C49.5515 10.2352 48.958 10.3539 48.4042 10.5853C47.8504 10.8168 47.3472 11.1564 46.9234 11.5848C46.4997 12.0131 46.1637 12.5218 45.9347 13.0817C45.7058 13.6416 45.5883 14.2416 45.5891 14.8475C45.5891 17.3988 47.6268 19.4717 50.1508 19.4717C52.6748 19.4717 54.7248 17.3988 54.7248 14.8471C54.7248 12.2958 52.6743 10.2361 50.1508 10.2361ZM50.1631 12.4769C51.4546 12.4769 52.4952 13.5422 52.4952 14.8471C52.4952 16.1528 51.4542 17.2048 50.1635 17.2048C48.8728 17.2048 47.8187 16.1524 47.8187 14.8471C47.8201 14.2188 48.0676 13.6167 48.5071 13.1726C48.9465 12.7284 49.5417 12.4782 50.1631 12.4769ZM55.343 10.4317V19.3291H57.9318V15.7175C57.9318 14.4371 58.2081 13.6798 58.6677 13.131C59.1446 12.5619 59.5636 12.2278 60.8436 12.2108L61.8145 12.2241L61.8276 16.2933C61.8296 16.9159 61.8604 17.4411 61.9986 17.8883C62.3163 18.9163 63.0892 19.4796 64.584 19.4796C65.2671 19.4796 65.9329 19.3872 66.5643 19.1522L66.254 17.3466C65.9575 17.4614 65.6041 17.5339 65.3347 17.5364C64.5754 17.5434 64.4003 17.2077 64.4028 16.4048V12.2241H66.2667L66.2732 10.4313H64.4028L64.3967 7.91236L62.3065 7.90614L61.8596 10.4313H60.6431C60.2544 10.4313 59.9555 10.4346 59.6612 10.5101C58.4148 10.8276 57.9031 11.7544 57.5886 12.3352L56.8576 10.4313L55.343 10.4317ZM71.1305 10.2361C70.5313 10.2353 69.9378 10.354 69.384 10.5854C68.8303 10.8169 68.3271 11.1565 67.9034 11.5849C67.4797 12.0133 67.1437 12.522 66.9148 13.0818C66.6859 13.6417 66.5684 14.2417 66.5692 14.8475C66.5692 17.3988 68.6069 19.4717 71.1305 19.4717C73.654 19.4717 75.7045 17.3988 75.7045 14.8471C75.7045 12.2958 73.6545 10.2361 71.1305 10.2361ZM71.1432 12.4769C72.4343 12.4769 73.4753 13.5422 73.4753 14.8471C73.4753 16.1528 72.4343 17.2048 71.1432 17.2048C69.8521 17.2048 68.7984 16.1524 68.7984 14.8471C68.7998 14.2188 69.0474 13.6166 69.4869 13.1724C69.9264 12.7282 70.5217 12.4781 71.1432 12.4769ZM81.3875 10.2361C80.2034 10.2423 79.2309 10.8185 78.3252 11.8029L77.8254 10.4301H76.3137V19.3291H78.8377V13.2152C79.096 12.9196 79.6794 12.3725 80.4264 12.3733C81.3752 12.3741 81.7196 12.9909 81.7204 13.6815L81.7335 19.3291H84.3087V13.6036C84.3108 11.3768 83.0295 10.2266 81.3875 10.2361ZM84.5428 11.463V10.6125H84.2968V10.4359H84.9844V10.6125H84.7322V11.463H84.5428ZM85.1144 11.463V10.4359H85.3878L85.5699 11.1161L85.7413 10.4363H86V11.463H85.8561V10.6635L85.6318 11.463H85.4953L85.2903 10.6489V11.463H85.1144ZM31.5725 1.09081V2.15319H32.6233V1.09039L31.5725 1.09081ZM31.5725 2.15319H29.625V3.21516H31.5725V2.15319ZM29.625 3.21516H28.6512V5.2877H29.625V3.21516ZM29.625 5.2877V6.29827H30.6245V5.2877H29.625ZM30.6245 5.2877H31.7262V4.29039H30.6241L30.6245 5.2877ZM29.625 6.29827H28.6512V7.33454H27.6389V6.29827H25.9862V7.03609H25.0891V7.94304H26.076V8.95361H25.0764L25.0891 7.94304H24.0129V9.5364H23.0137V10.5337H22.3348V11.5443H21.6173C20.074 14.1026 18.8358 16.4661 18.1191 18.215C16.1524 15.5675 15.2299 14.6141 13.5714 13.6815C12.9786 13.3482 12.4505 13.1932 12.072 13.4096C11.6789 13.6342 11.5636 14.3439 12.0597 14.8989C15.1388 18.3468 15.6928 20.1864 16.8129 22.8135C17.1466 23.5969 17.7764 23.9331 18.4914 23.9534C18.8735 23.9642 19.3426 23.8473 19.657 23.4742C19.803 23.3014 19.8456 23.0647 19.9645 22.7745C20.9006 20.4931 21.9391 18.2054 23.4372 16.0264L23.4495 14.8865H24.2441L24.2314 13.8759H25.0895L25.0772 12.6709H26.0764V11.57H25.0641L25.0768 10.5337H26.0764V11.57H27.0756V10.5209H27.8575V9.29019H28.7668V8.44832H29.625V6.29827ZM27.6389 6.29827H28.6512V5.2877H27.6389V6.29827ZM27.6389 5.2877V4.31609H26.627V5.2877H27.6389Z" fill="black"/>
    <path d="M29.625 3.2201H30.6225V4.28414H29.625V3.2201ZM32.618 2.15605H33.6975V3.2201H32.618V2.15605ZM32.618 0.00268555H33.6975V1.09201H32.618V0.00268555Z" fill="#FEB511"/>
    <path d="M36.0858 28.8989H35.6102V22.2676H36.4114V24.719C36.7283 24.3177 37.1723 24.0412 37.6635 24.0566C38.9948 24.098 39.4868 25.2976 39.5015 26.4566C39.5196 27.846 38.764 28.978 37.5438 28.9909C37.0215 28.9963 36.5664 28.7612 36.2687 28.3202L36.0858 28.8989ZM36.4163 27.8501C36.7435 28.1548 36.8066 28.3198 37.4401 28.3256C38.3921 28.3343 38.6364 27.2661 38.6344 26.5241C38.6319 25.5886 38.3773 24.7873 37.5512 24.7633C37.0309 24.748 36.6758 25.0079 36.4265 25.2922L36.4163 27.8501ZM40.194 30.5544L40.2986 29.943C40.971 30.0781 41.4564 29.9314 41.7209 29.182L40.055 24.1523H40.889L42.0657 28.1614L43.1772 24.1523H43.9919L42.3736 29.3627C42.0001 30.5656 41.1268 30.7782 40.194 30.5544ZM46.4445 28.2L46.852 27.6309C47.4728 28.0802 47.9402 28.2626 48.7036 28.2659C49.5293 28.27 50.0566 27.8356 50.0521 27.1637C50.0394 25.2765 46.8369 26.3347 46.7819 23.8191C46.7577 22.7165 47.729 22.1735 48.6659 22.1685C49.3731 22.1648 50.0365 22.2729 50.4879 22.5954L50.1353 23.2363C49.9233 23.0236 49.1603 22.8814 48.7458 22.8781C48.0242 22.8727 47.5683 23.1616 47.5474 23.7747C47.4867 25.5786 50.8618 24.5859 50.8561 27.1447C50.854 28.3376 49.9729 28.9581 48.7011 28.9693C47.5265 28.9797 46.6528 28.4429 46.4445 28.2ZM56.1644 28.8926V24.1598H56.6584L56.8507 24.9316C57.2394 24.4085 57.9126 24.0595 58.4792 24.0611C59.1487 24.0632 59.4333 24.5403 59.5194 24.8901C59.9417 24.3927 60.5083 24.0611 61.0819 24.0566C62.07 24.0483 62.2967 24.777 62.2967 25.5944V28.8926L61.4952 28.8955V25.8559C61.4952 25.1903 61.416 24.7583 60.8519 24.7699C60.2266 24.7836 59.8937 25.1994 59.6658 25.405V28.8955H58.8339V25.766C58.8339 25.131 58.7318 24.7633 58.1984 24.7749C57.6613 24.7865 57.5042 25.005 56.9835 25.4224V28.896L56.1644 28.8926ZM66.27 28.3285C65.8555 28.7675 65.3225 28.978 64.8231 28.9735C64.0273 28.9656 63.3824 28.4761 63.3857 27.6802C63.389 26.709 64.0515 26.44 64.6194 26.2493C65.1794 26.0611 65.6263 25.9961 66.1343 25.9065C66.156 25.0622 65.9793 24.75 65.2963 24.7455C64.6805 24.7413 64.1524 25.0244 63.9248 25.1434L63.6345 24.6021C63.8592 24.4251 64.4246 24.0661 65.3504 24.0578C66.3656 24.0495 66.9707 24.6257 66.9711 25.7034L66.9724 28.8955H66.4787L66.27 28.3285ZM66.1409 26.4578C65.6366 26.5573 65.3598 26.6414 64.9642 26.7687C64.4562 26.9316 64.2106 27.1907 64.2167 27.662C64.2229 28.1561 64.5447 28.3463 64.9457 28.3368C65.4254 28.3256 65.7346 28.1668 66.1376 27.8597L66.1409 26.4578ZM75.4466 28.2543L75.5688 28.8172C75.2876 28.9739 74.8669 28.9631 74.6984 28.9639C73.7095 28.9668 73.5611 28.3185 73.5611 27.5795V24.7418H72.8624V24.1523H73.5611L73.8005 22.8031L74.3733 22.801V24.1523H75.427V24.7418H74.3733V27.6226C74.3733 28.3256 74.6631 28.3285 74.9358 28.3397C75.1982 28.3509 75.4466 28.2543 75.4466 28.2543ZM79.5163 27.8559L79.8566 28.3471C79.5003 28.6298 79.1006 28.9751 78.2412 28.978C76.8095 28.9822 76.1707 27.8746 76.1764 26.5577C76.1826 25.2454 76.782 24.0653 78.1018 24.0582C79.7426 24.0487 79.9739 25.6508 79.973 26.7675H77.0444C77.0456 27.6644 77.4065 28.3148 78.1449 28.3219C78.9075 28.3289 79.5163 27.8559 79.5163 27.8559ZM77.044 26.2H79.126C79.085 25.4568 78.8952 24.6746 78.1092 24.6846C77.2666 24.6949 77.1006 25.4804 77.044 26.2ZM84.2387 28.3467C83.9037 28.675 83.3711 28.9598 82.6836 28.9648C81.3662 28.9747 80.7176 27.9476 80.7176 26.5283C80.7172 25.1148 81.4216 24.0591 82.7914 24.0566C83.3986 24.0553 83.8352 24.3003 84.1493 24.5581L83.7947 25.1024C83.597 24.9432 83.1624 24.7219 82.7824 24.7272C81.85 24.7405 81.5597 25.4348 81.5618 26.5063C81.5639 27.3987 81.7594 28.3007 82.7783 28.3103C83.0813 28.3132 83.4474 28.2046 83.841 27.8593L84.2387 28.3467ZM51.4801 30.5544L51.5842 29.943C52.2566 30.0781 52.7425 29.9314 53.0069 29.182L51.3407 24.1523H52.175L53.3518 28.1614L54.4633 24.1523H55.2779L53.6597 29.3627C53.2861 30.5656 52.4124 30.7782 51.4801 30.5544ZM68.3364 28.8926V24.1598H68.8305L69.0224 24.9316C69.4114 24.4085 70.1396 24.0557 70.7977 24.0611C71.6505 24.0682 71.9842 24.828 71.9842 25.6271V28.8955H71.1523V25.766C71.1523 25.131 71.0498 24.7633 70.5168 24.7749C69.9797 24.7865 69.6763 25.005 69.1552 25.4224V28.896L68.3364 28.8926Z" fill="#999999"/>
</svg>
