<svg
    xmlns="http://www.w3.org/2000/svg"
    viewBox="0 0 98 18"
    width="98" height="18"
    fill="none"
>
    <path d="M15.9635 6.20661L11.5005 5.55798L9.50534 1.51325C9.45084 1.40251 9.3612 1.31286 9.25045 1.25837C8.97272 1.12126 8.63522 1.23552 8.49635 1.51325L6.50123 5.55798L2.03815 6.20661C1.9151 6.22419 1.8026 6.2822 1.71647 6.37009C1.61234 6.47712 1.55496 6.62111 1.55693 6.77042C1.55891 6.91973 1.62009 7.06215 1.72701 7.16638L4.95612 10.3146L4.19323 14.7601C4.17533 14.8635 4.18678 14.9699 4.22626 15.0671C4.26574 15.1644 4.33167 15.2486 4.41659 15.3103C4.5015 15.372 4.602 15.4086 4.70668 15.4161C4.81136 15.4235 4.91604 15.4015 5.00885 15.3525L9.00084 13.2537L12.9928 15.3525C13.1018 15.4105 13.2284 15.4299 13.3497 15.4088C13.6555 15.356 13.8612 15.066 13.8085 14.7601L13.0456 10.3146L16.2747 7.16638C16.3626 7.08025 16.4206 6.96775 16.4381 6.8447C16.4856 6.53708 16.2712 6.25232 15.9635 6.20661Z"
        fill="#FFC000"
    />
    <path d="M35.9611 6.20661L31.498 5.55798L29.5029 1.51325C29.4484 1.40251 29.3588 1.31286 29.248 1.25837C28.9703 1.12126 28.6328 1.23552 28.4939 1.51325L26.4988 5.55798L22.0357 6.20661C21.9127 6.22419 21.8002 6.2822 21.714 6.37009C21.6099 6.47712 21.5525 6.62111 21.5545 6.77042C21.5565 6.91973 21.6176 7.06215 21.7246 7.16638L24.9537 10.3146L24.1908 14.7601C24.1729 14.8635 24.1843 14.9699 24.2238 15.0671C24.2633 15.1644 24.3292 15.2486 24.4141 15.3103C24.4991 15.372 24.5996 15.4086 24.7042 15.4161C24.8089 15.4235 24.9136 15.4015 25.0064 15.3525L28.9984 13.2537L32.9904 15.3525C33.0994 15.4105 33.2259 15.4299 33.3472 15.4088C33.6531 15.356 33.8588 15.066 33.806 14.7601L33.0431 10.3146L36.2722 7.16638C36.3601 7.08025 36.4181 6.96775 36.4357 6.8447C36.4832 6.53708 36.2687 6.25232 35.9611 6.20661Z"
        fill="#FFC000"
    />
    <path d="M55.9611 6.20661L51.498 5.55798L49.5029 1.51325C49.4484 1.40251 49.3588 1.31286 49.248 1.25837C48.9703 1.12126 48.6328 1.23552 48.4939 1.51325L46.4988 5.55798L42.0357 6.20661C41.9127 6.22419 41.8002 6.2822 41.714 6.37009C41.6099 6.47712 41.5525 6.62111 41.5545 6.77042C41.5565 6.91973 41.6176 7.06215 41.7246 7.16638L44.9537 10.3146L44.1908 14.7601C44.1729 14.8635 44.1843 14.9699 44.2238 15.0671C44.2633 15.1644 44.3292 15.2486 44.4141 15.3103C44.4991 15.372 44.5996 15.4086 44.7042 15.4161C44.8089 15.4235 44.9136 15.4015 45.0064 15.3525L48.9984 13.2537L52.9904 15.3525C53.0994 15.4105 53.2259 15.4299 53.3472 15.4088C53.6531 15.356 53.8588 15.066 53.806 14.7601L53.0431 10.3146L56.2722 7.16638C56.3601 7.08025 56.4181 6.96775 56.4357 6.8447C56.4832 6.53708 56.2687 6.25232 55.9611 6.20661Z"
        fill="#FFC000"
    />
    <path d="M75.9635 6.20661L71.5005 5.55798L69.5053 1.51325C69.4508 1.40251 69.3612 1.31286 69.2505 1.25837C68.9727 1.12126 68.6352 1.23552 68.4964 1.51325L66.5012 5.55798L62.0381 6.20661C61.9151 6.22419 61.8026 6.2822 61.7165 6.37009C61.6123 6.47712 61.555 6.62111 61.5569 6.77042C61.5589 6.91973 61.6201 7.06215 61.727 7.16638L64.9561 10.3146L64.1932 14.7601C64.1753 14.8635 64.1868 14.9699 64.2263 15.0671C64.2657 15.1644 64.3317 15.2486 64.4166 15.3103C64.5015 15.372 64.602 15.4086 64.7067 15.4161C64.8114 15.4235 64.916 15.4015 65.0089 15.3525L69.0008 13.2537L72.9928 15.3525C73.1018 15.4105 73.2284 15.4299 73.3497 15.4088C73.6555 15.356 73.8612 15.066 73.8085 14.7601L73.0456 10.3146L76.2747 7.16638C76.3626 7.08025 76.4206 6.96775 76.4381 6.8447C76.4856 6.53708 76.2712 6.25232 75.9635 6.20661Z"
        fill="#FFC000"
    />
    <path d="M95.9611 6.20661L91.498 5.55798L89.5029 1.51325C89.4484 1.40251 89.3588 1.31286 89.248 1.25837C88.9703 1.12126 88.6328 1.23552 88.4939 1.51325L86.4988 5.55798L82.0357 6.20661C81.9127 6.22419 81.8002 6.2822 81.714 6.37009C81.6099 6.47712 81.5525 6.62111 81.5545 6.77042C81.5565 6.91973 81.6176 7.06215 81.7246 7.16638L84.9537 10.3146L84.1908 14.7601C84.1729 14.8635 84.1843 14.9699 84.2238 15.0671C84.2633 15.1644 84.3292 15.2486 84.4141 15.3103C84.4991 15.372 84.5996 15.4086 84.7042 15.4161C84.8089 15.4235 84.9136 15.4015 85.0064 15.3525L88.9984 13.2537L92.9904 15.3525C93.0994 15.4105 93.2259 15.4299 93.3472 15.4088C93.6531 15.356 93.8588 15.066 93.806 14.7601L93.0431 10.3146L96.2722 7.16638C96.3601 7.08025 96.4181 6.96775 96.4357 6.8447C96.4832 6.53708 96.2687 6.25232 95.9611 6.20661Z"
        fill="#FFC000"
    />
</svg>
