<svg
    class="icon icon-verified"
    xmlns="http://www.w3.org/2000/svg"
    viewBox="0 0 126 17"
    width="126" height="17"
    fill="none"
>
    <path d="M29.0358 13.6486L26.0598 5.00856H26.9778L29.6118 12.6466L32.2638 5.00856H33.1818L30.2058 13.6486H29.0358ZM36.1091 13.8286C35.4771 13.8286 34.9291 13.6886 34.4651 13.4086C34.0051 13.1286 33.6471 12.7346 33.3911 12.2266C33.1351 11.7186 33.0071 11.1226 33.0071 10.4386C33.0071 9.73056 33.1331 9.11856 33.3851 8.60256C33.6371 8.08656 33.9911 7.68856 34.4471 7.40856C34.9071 7.12856 35.4491 6.98856 36.0731 6.98856C36.7131 6.98856 37.2591 7.13656 37.7111 7.43256C38.1631 7.72456 38.5051 8.14456 38.7371 8.69256C38.9691 9.24056 39.0751 9.89456 39.0551 10.6546H38.1551V10.3426C38.1391 9.50256 37.9571 8.86856 37.6091 8.44056C37.2651 8.01256 36.7611 7.79856 36.0971 7.79856C35.4011 7.79856 34.8671 8.02456 34.4951 8.47656C34.1271 8.92856 33.9431 9.57256 33.9431 10.4086C33.9431 11.2246 34.1271 11.8586 34.4951 12.3106C34.8671 12.7586 35.3931 12.9826 36.0731 12.9826C36.5371 12.9826 36.9411 12.8766 37.2851 12.6646C37.6331 12.4486 37.9071 12.1386 38.1071 11.7346L38.9291 12.0526C38.6731 12.6166 38.2951 13.0546 37.7951 13.3666C37.2991 13.6746 36.7371 13.8286 36.1091 13.8286ZM33.6311 10.6546V9.91656H38.5811V10.6546H33.6311ZM40.3866 13.6486V7.16856H41.1786V8.72856L41.0226 8.52456C41.0946 8.33256 41.1886 8.15656 41.3046 7.99656C41.4206 7.83256 41.5466 7.69856 41.6826 7.59456C41.8506 7.44656 42.0466 7.33456 42.2706 7.25856C42.4946 7.17856 42.7206 7.13256 42.9486 7.12056C43.1766 7.10456 43.3846 7.12056 43.5726 7.16856V7.99656C43.3366 7.93656 43.0786 7.92256 42.7986 7.95456C42.5186 7.98656 42.2606 8.09856 42.0246 8.29056C41.8086 8.45856 41.6466 8.66056 41.5386 8.89656C41.4306 9.12856 41.3586 9.37656 41.3226 9.64056C41.2866 9.90056 41.2686 10.1586 41.2686 10.4146V13.6486H40.3866ZM44.8308 5.93856V4.94856H45.7128V5.93856H44.8308ZM44.8308 13.6486V7.16856H45.7128V13.6486H44.8308ZM48.1536 13.6486V6.68856C48.1536 6.52056 48.1616 6.35456 48.1776 6.19056C48.1976 6.02656 48.2356 5.87056 48.2916 5.72256C48.3476 5.57056 48.4356 5.43056 48.5556 5.30256C48.6876 5.15856 48.8316 5.05456 48.9876 4.99056C49.1436 4.92256 49.3056 4.87856 49.4736 4.85856C49.6456 4.83856 49.8136 4.82856 49.9776 4.82856H50.8056V5.57256H50.0376C49.7016 5.57256 49.4496 5.65456 49.2816 5.81856C49.1176 5.98256 49.0356 6.24056 49.0356 6.59256V13.6486H48.1536ZM47.0316 7.92456V7.16856H50.8056V7.92456H47.0316ZM52.0656 5.93856V4.94856H52.9476V5.93856H52.0656ZM52.0656 13.6486V7.16856H52.9476V13.6486H52.0656ZM57.4841 13.8286C56.8521 13.8286 56.3041 13.6886 55.8401 13.4086C55.3801 13.1286 55.0221 12.7346 54.7661 12.2266C54.5101 11.7186 54.3821 11.1226 54.3821 10.4386C54.3821 9.73056 54.5081 9.11856 54.7601 8.60256C55.0121 8.08656 55.3661 7.68856 55.8221 7.40856C56.2821 7.12856 56.8241 6.98856 57.4481 6.98856C58.0881 6.98856 58.6341 7.13656 59.0861 7.43256C59.5381 7.72456 59.8801 8.14456 60.1121 8.69256C60.3441 9.24056 60.4501 9.89456 60.4301 10.6546H59.5301V10.3426C59.5141 9.50256 59.3321 8.86856 58.9841 8.44056C58.6401 8.01256 58.1361 7.79856 57.4721 7.79856C56.7761 7.79856 56.2421 8.02456 55.8701 8.47656C55.5021 8.92856 55.3181 9.57256 55.3181 10.4086C55.3181 11.2246 55.5021 11.8586 55.8701 12.3106C56.2421 12.7586 56.7681 12.9826 57.4481 12.9826C57.9121 12.9826 58.3161 12.8766 58.6601 12.6646C59.0081 12.4486 59.2821 12.1386 59.4821 11.7346L60.3041 12.0526C60.0481 12.6166 59.6701 13.0546 59.1701 13.3666C58.6741 13.6746 58.1121 13.8286 57.4841 13.8286ZM55.0061 10.6546V9.91656H59.9561V10.6546H55.0061ZM64.2756 13.8286C63.6716 13.8286 63.1556 13.6786 62.7276 13.3786C62.2996 13.0746 61.9716 12.6646 61.7436 12.1486C61.5156 11.6326 61.4016 11.0506 61.4016 10.4026C61.4016 9.75856 61.5136 9.17856 61.7376 8.66256C61.9656 8.14656 62.2916 7.73856 62.7156 7.43856C63.1396 7.13856 63.6476 6.98856 64.2396 6.98856C64.8476 6.98856 65.3596 7.13656 65.7756 7.43256C66.1916 7.72856 66.5056 8.13456 66.7176 8.65056C66.9336 9.16256 67.0416 9.74656 67.0416 10.4026C67.0416 11.0466 66.9356 11.6286 66.7236 12.1486C66.5116 12.6646 66.1996 13.0746 65.7876 13.3786C65.3756 13.6786 64.8716 13.8286 64.2756 13.8286ZM64.3656 13.0066C64.8256 13.0066 65.2056 12.8946 65.5056 12.6706C65.8056 12.4466 66.0296 12.1386 66.1776 11.7466C66.3256 11.3506 66.3996 10.9026 66.3996 10.4026C66.3996 9.89456 66.3256 9.44656 66.1776 9.05856C66.0296 8.66656 65.8056 8.36056 65.5056 8.14056C65.2096 7.92056 64.8356 7.81056 64.3836 7.81056C63.9196 7.81056 63.5356 7.92456 63.2316 8.15256C62.9276 8.38056 62.7016 8.69056 62.5536 9.08256C62.4096 9.47456 62.3376 9.91456 62.3376 10.4026C62.3376 10.8946 62.4116 11.3386 62.5596 11.7346C62.7116 12.1266 62.9376 12.4366 63.2376 12.6646C63.5376 12.8926 63.9136 13.0066 64.3656 13.0066ZM66.3996 13.6486V8.77056H66.3036V5.00856H67.1916V13.6486H66.3996ZM74.7753 13.8286C73.9153 13.8286 73.1893 13.6386 72.5973 13.2586C72.0053 12.8746 71.5573 12.3446 71.2533 11.6686C70.9493 10.9926 70.7973 10.2126 70.7973 9.32856C70.7973 8.44456 70.9493 7.66456 71.2533 6.98856C71.5573 6.31256 72.0053 5.78456 72.5973 5.40456C73.1893 5.02056 73.9153 4.82856 74.7753 4.82856C75.7793 4.82856 76.5993 5.08656 77.2353 5.60256C77.8713 6.11456 78.3073 6.80256 78.5433 7.66656L77.6433 7.90056C77.4593 7.21656 77.1293 6.67456 76.6533 6.27456C76.1773 5.87456 75.5513 5.67456 74.7753 5.67456C74.0993 5.67456 73.5373 5.82856 73.0893 6.13656C72.6413 6.44456 72.3033 6.87456 72.0753 7.42656C71.8513 7.97456 71.7353 8.60856 71.7273 9.32856C71.7233 10.0486 71.8333 10.6826 72.0573 11.2306C72.2853 11.7786 72.6253 12.2086 73.0773 12.5206C73.5333 12.8286 74.0993 12.9826 74.7753 12.9826C75.5513 12.9826 76.1773 12.7826 76.6533 12.3826C77.1293 11.9786 77.4593 11.4366 77.6433 10.7566L78.5433 10.9906C78.3073 11.8546 77.8713 12.5446 77.2353 13.0606C76.5993 13.5726 75.7793 13.8286 74.7753 13.8286ZM82.3451 13.8106C81.9571 13.8106 81.6171 13.7506 81.3251 13.6306C81.0371 13.5106 80.7911 13.3486 80.5871 13.1446C80.3871 12.9406 80.2251 12.7086 80.1011 12.4486C79.9771 12.1846 79.8871 11.9066 79.8311 11.6146C79.7751 11.3186 79.7471 11.0246 79.7471 10.7326V7.16856H80.6351V10.4746C80.6351 10.8306 80.6691 11.1606 80.7371 11.4646C80.8051 11.7686 80.9131 12.0346 81.0611 12.2626C81.2131 12.4866 81.4071 12.6606 81.6431 12.7846C81.8831 12.9086 82.1731 12.9706 82.5131 12.9706C82.8251 12.9706 83.0991 12.9166 83.3351 12.8086C83.5751 12.7006 83.7751 12.5466 83.9351 12.3466C84.0991 12.1426 84.2231 11.8966 84.3071 11.6086C84.3911 11.3166 84.4331 10.9886 84.4331 10.6246L85.0571 10.7626C85.0571 11.4266 84.9411 11.9846 84.7091 12.4366C84.4771 12.8886 84.1571 13.2306 83.7491 13.4626C83.3411 13.6946 82.8731 13.8106 82.3451 13.8106ZM84.5231 13.6486V12.0526H84.4331V7.16856H85.3151V13.6486H84.5231ZM89.4101 13.8226C88.6501 13.8226 88.0241 13.6586 87.5321 13.3306C87.0441 13.0026 86.7441 12.5466 86.6321 11.9626L87.5321 11.8126C87.6281 12.1806 87.8461 12.4746 88.1861 12.6946C88.5301 12.9106 88.9541 13.0186 89.4581 13.0186C89.9501 13.0186 90.3381 12.9166 90.6221 12.7126C90.9061 12.5046 91.0481 12.2226 91.0481 11.8666C91.0481 11.6666 91.0021 11.5046 90.9101 11.3806C90.8221 11.2526 90.6401 11.1346 90.3641 11.0266C90.0881 10.9186 89.6761 10.7906 89.1281 10.6426C88.5401 10.4826 88.0801 10.3226 87.7481 10.1626C87.4161 10.0026 87.1801 9.81856 87.0401 9.61056C86.9001 9.39856 86.8301 9.14056 86.8301 8.83656C86.8301 8.46856 86.9341 8.14656 87.1421 7.87056C87.3501 7.59056 87.6381 7.37456 88.0061 7.22256C88.3741 7.06656 88.8021 6.98856 89.2901 6.98856C89.7781 6.98856 90.2141 7.06856 90.5981 7.22856C90.9861 7.38456 91.2981 7.60456 91.5341 7.88856C91.7701 8.17256 91.9101 8.50256 91.9541 8.87856L91.0541 9.04056C90.9941 8.66056 90.8041 8.36056 90.4841 8.14056C90.1681 7.91656 89.7661 7.80056 89.2781 7.79256C88.8181 7.78056 88.4441 7.86856 88.1561 8.05656C87.8681 8.24056 87.7241 8.48656 87.7241 8.79456C87.7241 8.96656 87.7761 9.11456 87.8801 9.23856C87.9841 9.35856 88.1721 9.47256 88.4441 9.58056C88.7201 9.68856 89.1121 9.80656 89.6201 9.93456C90.2161 10.0866 90.6841 10.2466 91.0241 10.4146C91.3641 10.5826 91.6061 10.7806 91.7501 11.0086C91.8941 11.2366 91.9661 11.5186 91.9661 11.8546C91.9661 12.4666 91.7381 12.9486 91.2821 13.3006C90.8301 13.6486 90.2061 13.8226 89.4101 13.8226ZM96.8248 13.6486C96.4608 13.7246 96.1008 13.7546 95.7448 13.7386C95.3928 13.7226 95.0768 13.6466 94.7968 13.5106C94.5208 13.3746 94.3108 13.1626 94.1668 12.8746C94.0508 12.6346 93.9868 12.3926 93.9748 12.1486C93.9668 11.9006 93.9628 11.6186 93.9628 11.3026V5.36856H94.8388V11.2666C94.8388 11.5386 94.8408 11.7666 94.8448 11.9506C94.8528 12.1306 94.8948 12.2906 94.9708 12.4306C95.1148 12.6986 95.3428 12.8586 95.6548 12.9106C95.9708 12.9626 96.3608 12.9506 96.8248 12.8746V13.6486ZM92.5768 7.92456V7.16856H96.8248V7.92456H92.5768ZM100.573 13.8286C99.9291 13.8286 99.3791 13.6826 98.9231 13.3906C98.4671 13.0986 98.1171 12.6946 97.8731 12.1786C97.6291 11.6626 97.5071 11.0706 97.5071 10.4026C97.5071 9.72256 97.6311 9.12656 97.8791 8.61456C98.1271 8.10256 98.4791 7.70456 98.9351 7.42056C99.3951 7.13256 99.9411 6.98856 100.573 6.98856C101.221 6.98856 101.773 7.13456 102.229 7.42656C102.689 7.71456 103.039 8.11656 103.279 8.63256C103.523 9.14456 103.645 9.73456 103.645 10.4026C103.645 11.0826 103.523 11.6806 103.279 12.1966C103.035 12.7086 102.683 13.1086 102.223 13.3966C101.763 13.6846 101.213 13.8286 100.573 13.8286ZM100.573 12.9826C101.293 12.9826 101.829 12.7446 102.181 12.2686C102.533 11.7886 102.709 11.1666 102.709 10.4026C102.709 9.61856 102.531 8.99456 102.175 8.53056C101.823 8.06656 101.289 7.83456 100.573 7.83456C100.089 7.83456 99.6891 7.94456 99.3731 8.16456C99.0611 8.38056 98.8271 8.68256 98.6711 9.07056C98.5191 9.45456 98.4431 9.89856 98.4431 10.4026C98.4431 11.1826 98.6231 11.8086 98.9831 12.2806C99.3431 12.7486 99.8731 12.9826 100.573 12.9826ZM112.697 13.6486L112.703 9.39456C112.703 8.89456 112.563 8.50256 112.283 8.21856C112.007 7.93056 111.655 7.78656 111.227 7.78656C110.983 7.78656 110.745 7.84256 110.513 7.95456C110.281 8.06656 110.089 8.24656 109.937 8.49456C109.789 8.74256 109.715 9.06656 109.715 9.46656L109.193 9.31656C109.181 8.85256 109.271 8.44656 109.463 8.09856C109.659 7.75056 109.927 7.48056 110.267 7.28856C110.611 7.09256 110.999 6.99456 111.431 6.99456C112.083 6.99456 112.605 7.19656 112.997 7.60056C113.389 8.00056 113.585 8.54256 113.585 9.22656L113.579 13.6486H112.697ZM104.963 13.6486V7.16856H105.755V8.76456H105.851V13.6486H104.963ZM108.839 13.6486L108.845 9.45456C108.845 8.93856 108.707 8.53256 108.431 8.23656C108.159 7.93656 107.799 7.78656 107.351 7.78656C106.903 7.78656 106.541 7.94056 106.265 8.24856C105.989 8.55256 105.851 8.95856 105.851 9.46656L105.323 9.17856C105.323 8.76256 105.421 8.39056 105.617 8.06256C105.813 7.73056 106.081 7.47056 106.421 7.28256C106.761 7.09056 107.147 6.99456 107.579 6.99456C107.991 6.99456 108.357 7.08256 108.677 7.25856C109.001 7.43456 109.255 7.69056 109.439 8.02656C109.623 8.36256 109.715 8.77056 109.715 9.25056L109.709 13.6486H108.839ZM117.847 13.8286C117.215 13.8286 116.667 13.6886 116.203 13.4086C115.743 13.1286 115.385 12.7346 115.129 12.2266C114.873 11.7186 114.745 11.1226 114.745 10.4386C114.745 9.73056 114.871 9.11856 115.123 8.60256C115.375 8.08656 115.729 7.68856 116.185 7.40856C116.645 7.12856 117.187 6.98856 117.811 6.98856C118.451 6.98856 118.997 7.13656 119.449 7.43256C119.901 7.72456 120.243 8.14456 120.475 8.69256C120.707 9.24056 120.813 9.89456 120.793 10.6546H119.893V10.3426C119.877 9.50256 119.695 8.86856 119.347 8.44056C119.003 8.01256 118.499 7.79856 117.835 7.79856C117.139 7.79856 116.605 8.02456 116.233 8.47656C115.865 8.92856 115.681 9.57256 115.681 10.4086C115.681 11.2246 115.865 11.8586 116.233 12.3106C116.605 12.7586 117.131 12.9826 117.811 12.9826C118.275 12.9826 118.679 12.8766 119.023 12.6646C119.371 12.4486 119.645 12.1386 119.845 11.7346L120.667 12.0526C120.411 12.6166 120.033 13.0546 119.533 13.3666C119.037 13.6746 118.475 13.8286 117.847 13.8286ZM115.369 10.6546V9.91656H120.319V10.6546H115.369ZM122.125 13.6486V7.16856H122.917V8.72856L122.761 8.52456C122.833 8.33256 122.927 8.15656 123.043 7.99656C123.159 7.83256 123.285 7.69856 123.421 7.59456C123.589 7.44656 123.785 7.33456 124.009 7.25856C124.233 7.17856 124.459 7.13256 124.687 7.12056C124.915 7.10456 125.123 7.12056 125.311 7.16856V7.99656C125.075 7.93656 124.817 7.92256 124.537 7.95456C124.257 7.98656 123.999 8.09856 123.763 8.29056C123.547 8.45856 123.385 8.66056 123.277 8.89656C123.169 9.12856 123.097 9.37656 123.061 9.64056C123.025 9.90056 123.007 10.1586 123.007 10.4146V13.6486H122.125Z"
        fill="#5BB59A"
    />
    <path d="M15.6398 7.6409L14.5521 6.37722C14.3442 6.13728 14.1762 5.68939 14.1762 5.36947V4.00981C14.1762 3.16202 13.4804 2.4662 12.6326 2.4662H11.2729C10.961 2.4662 10.5051 2.29824 10.2652 2.09029L9.00151 1.00256C8.44964 0.530681 7.54587 0.530681 6.98601 1.00256L5.73032 2.09829C5.49038 2.29824 5.0345 2.4662 4.72258 2.4662H3.33892C2.49113 2.4662 1.79531 3.16202 1.79531 4.00981V5.37747C1.79531 5.68939 1.62735 6.13728 1.4274 6.37722L0.347669 7.6489C-0.116215 8.20076 -0.116215 9.09654 0.347669 9.6484L1.4274 10.9201C1.62735 11.16 1.79531 11.6079 1.79531 11.9198V13.2875C1.79531 14.1353 2.49113 14.8311 3.33892 14.8311H4.72258C5.0345 14.8311 5.49038 14.9991 5.73032 15.207L6.99401 16.2947C7.54587 16.7666 8.44964 16.7666 9.0095 16.2947L10.2732 15.207C10.5131 14.9991 10.961 14.8311 11.2809 14.8311H12.6406C13.4884 14.8311 14.1842 14.1353 14.1842 13.2875V11.9278C14.1842 11.6159 14.3522 11.16 14.5601 10.9201L15.6478 9.6564C16.1117 9.10454 16.1117 8.19277 15.6398 7.6409ZM11.3209 7.13703L7.45789 11.0001C7.34592 11.112 7.19396 11.176 7.034 11.176C6.87404 11.176 6.72208 11.112 6.6101 11.0001L4.67459 9.06455C4.44265 8.83261 4.44265 8.4487 4.67459 8.21676C4.90653 7.98482 5.29043 7.98482 5.52238 8.21676L7.034 9.72838L10.4731 6.28924C10.7051 6.0573 11.089 6.0573 11.3209 6.28924C11.5529 6.52118 11.5529 6.90509 11.3209 7.13703Z"
        fill="#5BB59A"
    />
</svg>
